<svg id="Layer_2" data-name="Layer 2" xmlns="http://www.w3.org/2000/svg" xmlns:xlink="http://www.w3.org/1999/xlink" viewBox="0 0 220.11 216.66"><defs><style>.cls-1{fill:#838bc5;}.cls-2{fill:#ba9bc9;}.cls-3{fill:#fff;}.cls-4{fill:#2e3192;}.cls-5{fill:#137e8d;}.cls-6{fill:#0d456e;}.cls-7{fill:url(#radial-gradient);}.cls-8{fill:aqua;}.cls-9{fill:url(#radial-gradient-2);}.cls-10{fill:#424663;}</style><radialGradient id="radial-gradient" cx="135.73" cy="100.37" r="6.94" gradientUnits="userSpaceOnUse"><stop offset="0" stop-color="aqua"/><stop offset="0.12" stop-color="#04eeee"/><stop offset="0.36" stop-color="#0fc1c1"/><stop offset="0.59" stop-color="#1b9292"/><stop offset="0.95" stop-color="#304040"/><stop offset="1" stop-color="#333"/></radialGradient><radialGradient id="radial-gradient-2" cx="1210.04" cy="135.96" r="6.94" gradientTransform="matrix(-1, 0, 0, 1, 1295.41, -35.59)" xlink:href="#radial-gradient"/></defs><title>adrien</title><path class="cls-1" d="M679.17,134.41" transform="translate(-524.15 -35.59)"/><rect class="cls-2" x="582.69" y="185.67" width="40.17" height="7.21" rx="3.61" ry="3.61" transform="translate(646.25 -123.74) rotate(136.52)"/><rect class="cls-3" x="596.8" y="187.41" width="7.21" height="8.23" transform="translate(350.42 723.39) rotate(-133.48)"/><rect class="cls-3" x="605.73" y="180.16" width="7.21" height="5.79" transform="translate(371.64 715.57) rotate(-133.48)"/><rect class="cls-2" x="86.55" y="138.5" width="49.86" height="33.44"/><rect class="cls-2" x="86.55" y="166.41" width="49.86" height="5.53"/><rect class="cls-3" x="86.55" y="160.88" width="49.86" height="5.53"/><rect class="cls-2" x="86.55" y="155.22" width="49.86" height="5.53"/><rect class="cls-3" x="86.55" y="149.69" width="49.84" height="5.53"/><rect class="cls-2" x="650.53" y="190.98" width="40.17" height="7.21" rx="3.61" ry="3.61" transform="translate(-58.44 -508.54) rotate(56.76)"/><rect class="cls-3" x="668.8" y="193.2" width="7.21" height="8.23" transform="translate(-522.28 365.32) rotate(-33.24)"/><rect class="cls-3" x="662.05" y="184.13" width="7.21" height="5.79" transform="translate(-517.74 359.94) rotate(-33.24)"/><path class="cls-4" d="M647.87,228.77v3.56a0.81,0.81,0,0,1-.81.81h-1.4l-1.11,19.12h-1.64l-1.11-19.12H640.3a0.81,0.81,0,0,1-.81-0.81v-3.56a0.81,0.81,0,0,1,.81-0.81h6.77A0.81,0.81,0,0,1,647.87,228.77Z" transform="translate(-524.15 -35.59)"/><path class="cls-2" d="M655.46,215h-40a4.27,4.27,0,0,1-3.35-1.65l-1.25-1.59a1.83,1.83,0,0,1-.39-1.13v-3.1h50.06v2.64a3.76,3.76,0,0,1-1.32,2.88l-1.2,1A4,4,0,0,1,655.46,215Z" transform="translate(-524.15 -35.59)"/><polygon class="cls-2" points="121.76 192.87 117.88 192.87 116.41 176.88 123.23 176.88 121.76 192.87"/><polygon class="cls-2" points="98.98 202.66 94.86 202.66 93.26 177.96 100.57 177.96 98.98 202.66"/><rect class="cls-4" x="93.26" y="202.66" width="8.19" height="3.51"/><path class="cls-4" d="M619.61,241.18s-1.61,8-3.8,10.16h4.39l1.32-2,1.46,2h1.39l-0.51-10.74Z" transform="translate(-524.15 -35.59)"/><path class="cls-5" d="M605.64,200.67l-3,6.29a0.75,0.75,0,0,1-1.17.24l-2.69-2.35-6.94,9.76a1.81,1.81,0,0,1-.87.69l0.17,0.14-7,1.93-1.66-1.45-6.4,7.34L576,223.2l-0.73.83a11.8,11.8,0,0,0-4-2.06,9.84,9.84,0,0,0-4.32-.24,7,7,0,0,0-3.69,1.9,8.49,8.49,0,0,0-2.19,3.64,7.57,7.57,0,0,0,0,4.22,10.53,10.53,0,0,0,6,6.3,12.23,12.23,0,0,0,4.78.49,9.49,9.49,0,0,1-5.08.8,9.32,9.32,0,0,1-4.81-2.36,10.06,10.06,0,0,1-3.36-10.09,10.37,10.37,0,0,1,2.79-4.85,9.59,9.59,0,0,1,5-2.58,11.42,11.42,0,0,1,6.94,1l6-6.89-2.73-2.38,1-7.19,0.16,0.13a1.89,1.89,0,0,1,.56-1l8.73-8.22-1.83-1.59a0.75,0.75,0,0,1,.07-1.19l5.81-3.85a0.73,0.73,0,0,1,.9.07l13.4,11.65A0.75,0.75,0,0,1,605.64,200.67Z" transform="translate(-524.15 -35.59)"/><path class="cls-6" d="M634,35.61c-1.33,0-2.66,0-4,0-8.06-.27-14.65,2.79-20.23,8.52a74.46,74.46,0,0,1-8.41,7.58,19.41,19.41,0,0,1-6.22,2.76c-3.16.92-6.57,1.11-9.63,2.27A216.53,216.53,0,0,0,548,75.53c-8.21,5.08-15.35,11.33-20.64,19.51-4.44,6.87-4.28,12.66.56,19.3,4,5.44,9.09,9.64,14.59,13.37a284,284,0,0,0,39.18,21.68,2.49,2.49,0,0,0,3.26-.48c9.23-8.59,20.29-13.29,32.71-14.8,9-1.09,18-.75,27.06-0.24A78.49,78.49,0,0,1,664,137.16a54.67,54.67,0,0,1,20.15,11.22c3.44,3.08,6.07,2.51,9.56.76a230,230,0,0,0,32.69-20.28c5.51-4,10.75-8.47,14.46-14.37,4.27-6.79,4.63-13.59.11-20.46a54.26,54.26,0,0,0-12.91-13.12A161.19,161.19,0,0,0,681.19,56c-3-1-6-2-9.33-1.22a4.2,4.2,0,0,1-2.9-1,21.24,21.24,0,0,1-3.27-3.17c-3.6-4.08-7-8.33-11.86-11.07C647.64,36.09,640.83,35.82,634,35.61Z" transform="translate(-524.15 -35.59)"/><path class="cls-4" d="M634,35.61c6.83,0.21,13.65.48,19.84,4,4.86,2.74,8.26,7,11.86,11.07A21.24,21.24,0,0,0,669,53.82a4.2,4.2,0,0,0,2.9,1c3.32-.8,6.36.23,9.33,1.22a161.19,161.19,0,0,1,46.91,24.89A54.26,54.26,0,0,1,741,94c4.52,6.87,4.17,13.67-.11,20.46-3.71,5.9-8.95,10.33-14.46,14.37a230,230,0,0,1-32.69,20.28c-3.49,1.75-6.12,2.32-9.56-.76A54.67,54.67,0,0,0,664,137.16a78.49,78.49,0,0,0-19.33-3.28c-9-.52-18.07-0.86-27.06.24-12.42,1.51-23.47,6.22-32.71,14.8a2.49,2.49,0,0,1-3.26.48,284,284,0,0,1-39.18-21.68c-5.51-3.73-10.63-7.93-14.59-13.37-4.83-6.64-5-12.43-.56-19.3,5.29-8.19,12.43-14.43,20.64-19.51a216.53,216.53,0,0,1,37.52-18.8c3.06-1.15,6.47-1.34,9.63-2.27a19.41,19.41,0,0,0,6.22-2.76,74.46,74.46,0,0,0,8.41-7.58C615.36,38.4,622,35.33,630,35.61,631.34,35.65,632.67,35.61,634,35.61ZM535.44,91.11l0.5,0.64c1-.68,2.13-1.3,3.12-2.05,12.44-9.46,26.25-16.52,40.4-23,5.33-2.43,10.68-4.61,16.26-.59a19.22,19.22,0,0,0,2.22,1.33c4.79,2.55,9.51,5.25,14.4,7.58,5.24,2.5,11,3.47,16.7,3.9,4.84,0.36,9.76-.26,14.64-0.6A41.07,41.07,0,0,0,660,73.62c5.23-2.73,10.3-5.77,15.42-8.7,2.17-1.24,4.49-1.89,6.86-1,4.7,1.79,9.4,3.61,14,5.72A196,196,0,0,1,724,85.86c1.8,1.22,3.66,2.36,5.49,3.53l0.35-.46c-0.82-.76-1.61-1.56-2.46-2.28-1.77-1.5-3.48-3.1-5.38-4.43a197.34,197.34,0,0,0-39.45-21.77c-3.43-1.39-6.67-1.55-9.86.54-2.33,1.53-4.72,3-7,4.57a44.24,44.24,0,0,1-19.51,7.94A81.7,81.7,0,0,1,621.09,73a42.8,42.8,0,0,1-19.74-8.81c-5.51-4.38-11.06-5.43-17.69-2.61-13.43,5.7-26.31,12.34-38,21.09C542.11,85.29,538.83,88.28,535.44,91.11Zm118-30.19c-0.36-2.34-1.66-2.45-3-2.6s-2.74-.09-3.74-0.73c-5.07-3.23-10-6.63-15-10-2.17-1.5-4.72-2.64-5.28-5.76a2.73,2.73,0,0,0-2.17-1.47,3.49,3.49,0,0,0-1.94,2.34c-0.12,1.51-.56,2.24-2,2.65a2.75,2.75,0,0,0-1.55,1.6c-0.52,1.57,1,2.75,3.09,2.22a4.46,4.46,0,0,1,4,.83c5.61,4,11.25,7.91,16.94,11.77a5.57,5.57,0,0,1,2.67,3.67c0.18,0.85,1.4,1.48,2.15,2.2,0.72-.84,1.93-1.62,2-2.53a2.85,2.85,0,0,1,1.73-2.33A15.9,15.9,0,0,0,653.44,60.92Zm-23.59-7.34c-4.11,2-6.92,6-12,5.46-1.35-.14-1.9,1.87-0.91,3a3.41,3.41,0,0,0,1.57,1.16c1.33,0.32,1.4,1.16,1.62,2.3a3.37,3.37,0,0,0,1.8,2.12,1.76,1.76,0,0,0,2.38-1.69c0.11-2.43,1.85-3.34,3.46-4.47l6.76-4.71Zm5.93-4.1A31,31,0,0,0,639.4,52a2.47,2.47,0,0,0,2.15,0c2.3-1.85,4.7-3,7.79-2.54A2.12,2.12,0,0,0,651,48.2a3.43,3.43,0,0,0-1-2.3,7.75,7.75,0,0,0-2.37-1.1c0-.35,0-0.68,0-1,0-1.42-.18-2.71-1.84-3.07-1.86-.41-2.44.92-2.88,2.3a4.55,4.55,0,0,1-2.21,3A52,52,0,0,0,635.78,49.48Z" transform="translate(-524.15 -35.59)"/><path class="cls-3" d="M535.44,91.11c3.39-2.83,6.67-5.82,10.2-8.46,11.71-8.75,24.58-15.39,38-21.09,6.64-2.82,12.19-1.77,17.69,2.61A42.8,42.8,0,0,0,621.09,73a81.7,81.7,0,0,0,25.13.51,44.24,44.24,0,0,0,19.51-7.94c2.27-1.6,4.66-3,7-4.57,3.19-2.09,6.43-1.93,9.86-.54A197.34,197.34,0,0,1,722,82.22c1.89,1.33,3.61,2.93,5.38,4.43,0.85,0.72,1.65,1.52,2.46,2.28l-0.35.46c-1.83-1.17-3.69-2.31-5.49-3.53A196,196,0,0,0,696.2,69.64c-4.57-2.11-9.27-3.93-14-5.72-2.37-.9-4.69-0.25-6.86,1-5.12,2.93-10.19,6-15.42,8.7a41.07,41.07,0,0,1-16.28,4.74c-4.88.33-9.8,1-14.64,0.6-5.7-.43-11.46-1.4-16.7-3.9-4.89-2.33-9.61-5-14.4-7.58a19.22,19.22,0,0,1-2.22-1.33c-5.58-4-10.93-1.84-16.26.59-14.15,6.45-28,13.51-40.4,23-1,.75-2.08,1.37-3.12,2.05Z" transform="translate(-524.15 -35.59)"/><path class="cls-3" d="M653.44,60.92a15.9,15.9,0,0,1-2.07,1.83,2.85,2.85,0,0,0-1.73,2.33c-0.1.91-1.31,1.69-2,2.53-0.75-.73-2-1.35-2.15-2.2a5.57,5.57,0,0,0-2.67-3.67c-5.69-3.85-11.33-7.8-16.94-11.77a4.46,4.46,0,0,0-4-.83c-2.1.53-3.61-.65-3.09-2.22a2.75,2.75,0,0,1,1.55-1.6c1.46-.42,1.9-1.14,2-2.65a3.49,3.49,0,0,1,1.94-2.34,2.73,2.73,0,0,1,2.17,1.47c0.56,3.12,3.11,4.26,5.28,5.76,5,3.41,9.92,6.81,15,10,1,0.64,2.47.6,3.74,0.73S653.08,58.58,653.44,60.92Z" transform="translate(-524.15 -35.59)"/><path class="cls-3" d="M629.86,53.58l4.72,3.18-6.76,4.71c-1.61,1.12-3.35,2-3.46,4.47A1.76,1.76,0,0,1,622,67.63a3.37,3.37,0,0,1-1.8-2.12c-0.21-1.13-.29-2-1.62-2.3A3.41,3.41,0,0,1,617,62.06c-1-1.14-.44-3.15.91-3C622.94,59.57,625.75,55.55,629.86,53.58Z" transform="translate(-524.15 -35.59)"/><path class="cls-3" d="M635.78,49.48a52,52,0,0,1,5-3.43A4.55,4.55,0,0,0,643,43c0.44-1.38,1-2.71,2.88-2.3,1.66,0.36,1.88,1.66,1.84,3.07,0,0.33,0,.65,0,1a7.75,7.75,0,0,1,2.37,1.1,3.43,3.43,0,0,1,1,2.3,2.12,2.12,0,0,1-1.71,1.18c-3.08-.49-5.48.69-7.79,2.54a2.47,2.47,0,0,1-2.15,0A31,31,0,0,1,635.78,49.48Z" transform="translate(-524.15 -35.59)"/><path class="cls-2" d="M588.91,88.32s-27.29,39-22.22,101c0,0,83-21.05,135.66,0,0,0-2.73-69.78-21.83-101l-19.88,29.63-55.74-.39Z" transform="translate(-524.15 -35.59)"/><path d="M682.86,129.13c0,25.08-22.67,45.51-49.63,45-26.73-.55-48.31-21.54-47.43-46.39,10.59,16.65,30,26.73,50.64,26.18C666,153.09,681.63,130.92,682.86,129.13Z" transform="translate(-524.15 -35.59)"/><path d="M630.4,135.19s3.82-5,10.4,0L635.6,141Z" transform="translate(-524.15 -35.59)"/><path class="cls-3" d="M643.62,148s-1.32-30.11,32.75-24.71C676.37,123.31,676.37,148.52,643.62,148Z" transform="translate(-524.15 -35.59)"/><path d="M675.39,129.08a22.63,22.63,0,0,0,1-5.77c-22-3.5-29.27,7.87-31.62,16.33C644.74,139.64,652.22,120.18,675.39,129.08Z" transform="translate(-524.15 -35.59)"/><circle class="cls-7" cx="135.73" cy="100.37" r="6.94"/><circle class="cls-8" cx="136.01" cy="100.37" r="1.46"/><path class="cls-3" d="M625.78,148S627.1,117.9,593,123.31C593,123.31,593,148.52,625.78,148Z" transform="translate(-524.15 -35.59)"/><path d="M594,129.08a22.63,22.63,0,0,1-1-5.77c22-3.5,29.27,7.87,31.62,16.33C624.66,139.64,617.18,120.18,594,129.08Z" transform="translate(-524.15 -35.59)"/><circle class="cls-9" cx="85.37" cy="100.37" r="6.94"/><circle class="cls-8" cx="85.08" cy="100.37" r="1.46"/><path class="cls-3" d="M611.52,150.89s1,7,4.09,9.35,2.73-7.41,2.73-7.41Z" transform="translate(-524.15 -35.59)"/><path class="cls-3" d="M656.36,150.89s-1,6.75-4.09,9-2.73-7.13-2.73-7.13Z" transform="translate(-524.15 -35.59)"/><path class="cls-10" d="M668.14,114.43l10.53-19.3,8.19,19.3A16.43,16.43,0,0,0,668.14,114.43Z" transform="translate(-524.15 -35.59)"/><path class="cls-10" d="M580.62,115.59l7.88-20.52,10.67,18A16.43,16.43,0,0,0,580.62,115.59Z" transform="translate(-524.15 -35.59)"/></svg>