<svg id="Layer_2" data-name="Layer 2" xmlns="http://www.w3.org/2000/svg" xmlns:xlink="http://www.w3.org/1999/xlink" viewBox="0 0 132.7 171.66"><defs><style>.cls-1{fill:#f2f2f2;stroke:#bb0392;stroke-width:0.8px;}.cls-1,.cls-9{stroke-miterlimit:10;}.cls-2{fill:#137e8d;}.cls-3,.cls-9{fill:none;}.cls-4{fill:#1c1a33;}.cls-5{fill:#27edf4;}.cls-6{fill:url(#linear-gradient);}.cls-7{fill:#7ab7bf;}.cls-8{fill:url(#linear-gradient-2);}.cls-9{stroke:#fff;stroke-width:0.45px;}</style><linearGradient id="linear-gradient" x1="105.55" y1="161.14" x2="127.11" y2="161.14" gradientUnits="userSpaceOnUse"><stop offset="0" stop-color="#e6e6e6"/><stop offset="1" stop-color="#ccc"/></linearGradient><linearGradient id="linear-gradient-2" x1="197.03" y1="173.16" x2="206.92" y2="173.16" xlink:href="#linear-gradient"/></defs><title>cloris</title><path class="cls-1" d="M228.95,87v35.07c0,18.18-15.19,32.91-33.92,32.91H131c-18.73,0-33.92-14.73-33.92-32.91V89a26,26,0,0,1,.39-4.57A41.94,41.94,0,0,1,107,63.73a36.55,36.55,0,0,1,4.15-4c13-10.74,31.79-10.77,52.8-10.8,22.87,0,41,4.72,50.82,11.33A26.43,26.43,0,0,1,219,63.73a38.81,38.81,0,0,1,8.41,13.48A32.08,32.08,0,0,1,228.95,87Z" transform="translate(-96.65 -46.37)"/><path class="cls-2" d="M214,58.91a0.73,0.73,0,0,1-.63.14c-1.55-.08-4.22,2.44-5,5.27-0.19.72-.28,1.84-0.76,3.43a13,13,0,0,1-.52,1.4,4.35,4.35,0,0,1-.71,1.11,11.53,11.53,0,0,1-8.09,3.3H127a11.53,11.53,0,0,1-8.09-3.3,4.51,4.51,0,0,1-.71-1.11,12.87,12.87,0,0,1-.52-1.4c-0.49-1.59-.57-2.71-0.76-3.43-0.75-2.83-3.42-5.35-5-5.27a0.73,0.73,0,0,1-.63-0.14c-0.23-.36.58-1.26,0.86-1.54,10-10.21,43.19-11,50.37-11h0.17c7.18,0,40.39.78,50.37,11C213.39,57.66,214.19,58.56,214,58.91Z" transform="translate(-96.65 -46.37)"/><path class="cls-3" d="M113.44,65" transform="translate(-96.65 -46.37)"/><path class="cls-4" d="M32.16,37.14H99.37a21,21,0,0,1,21,21V74.66a26.69,26.69,0,0,1-26.69,26.69H38.32A26.69,26.69,0,0,1,11.62,74.66v-17A20.54,20.54,0,0,1,32.16,37.14Z"/><circle class="cls-5" cx="40.74" cy="71.33" r="11.5"/><circle class="cls-5" cx="96.39" cy="71.33" r="11.5"/><path class="cls-5" d="M169.74,132.66a4.22,4.22,0,0,1-8.44,0" transform="translate(-96.65 -46.37)"/><path class="cls-6" d="M127.11,165.72a39.38,39.38,0,0,1-8.18-6.9c-3.27-3.64-4.78-6.76-8.59-7.84-0.66-.19-3.41-1-4.41.23-1.7,2.05,2.78,8.65,6.06,12.28a34.43,34.43,0,0,0,11.38,8.23c0.58-.75,1.18-1.58,1.77-2.49A34.41,34.41,0,0,0,127.11,165.72Z" transform="translate(-96.65 -46.37)"/><path class="cls-1" d="M201.39,166.86V186a31.85,31.85,0,0,1-1.54,9.83c-2.49-.5-5-5.77-14.27,6.08-4.68,6-8.3,8.79-12.37,11a25.48,25.48,0,0,1-12.83,2.79c-10-1-15.94-1.89-25.2-13.75s-11.35-6.78-13.84-6.27a32,32,0,0,1-1.48-9.63V166.86a32.43,32.43,0,0,1,.62-6.33q6.29,0,12.65,0,15.69,0,31.84.3,13,0.24,25.72.66,5.17,0.16,10.29.36A32.39,32.39,0,0,1,201.39,166.86Z" transform="translate(-96.65 -46.37)"/><path class="cls-2" d="M199.85,195.85A32,32,0,0,1,169.38,218h-17.5a32,32,0,0,1-30.54-22.38c2.49-.5,4.58-5.57,13.84,6.28s15.24,12.75,25.2,13.74a25.45,25.45,0,0,0,12.83-2.79c4.07-2.17,7.69-5,12.37-11C194.84,190.08,197.36,195.35,199.85,195.85Z" transform="translate(-96.65 -46.37)"/><path class="cls-7" d="M191.05,165.86v15.6c0,13.85-10,25.08-22.28,25.08H154.91c-12.31,0-22.28-11.23-22.28-25.08v-15.6a28.46,28.46,0,0,1,.51-5.38q15.69,0,31.84.3,13,0.24,25.72.66A27.9,27.9,0,0,1,191.05,165.86Z" transform="translate(-96.65 -46.37)"/><path class="cls-8" d="M197,162.47a48.45,48.45,0,0,1,1.52,10c0.24,5.18-.55,8.37,1.63,11.52,0.39,0.56,2,2.92,3.55,2.63,2.62-.5,3.37-8.44,3.16-13.32a34.43,34.43,0,0,0-3.53-13.59c-0.91.32-1.88,0.69-2.88,1.11C199.22,161.34,198.07,161.9,197,162.47Z" transform="translate(-96.65 -46.37)"/><line class="cls-9" x1="24.69" y1="149.28" x2="24.68" y2="149.28"/><path d="M109.3,165.75" transform="translate(-96.65 -46.37)"/></svg>